# xmcd CD database file
# Copyright (C) 1993-1998 Ti Kan
#
# Track frame offsets:
#	183
#	14353
#	25003
#	36893
#	49753
#	61458
#	74503
#	88375
#	103068
#	114910
#	136943
#	150165
#	162063
#	176038
#	188195
#	202835
#
# Disc length: 2979 seconds
#
# Revision: 1
# Processed by: cddbd v1.4b41PL1 Copyright (c) Steve Scherf et al.
# Submitted via: CDValet v3.31 - Copyright (c) 1997 Greg Leichner
#
DISCID=cf0ba110
DTITLE=Freddy King - Takin' Care Of Business
DYEAR=1900
DGENRE=
TTITLE0=Have You Ever Loved A Woman
TTITLE1=You Know That You Love Me (But You Never Tell Me So)
TTITLE2=Hide Away
TTITLE3=I Love The Woman
TTITLE4=San-ho-zay
TTITLE5=Takin' Care Of Business
TTITLE6=High Rise
TTITLE7=You've Got To Love Her With A Feeling
TTITLE8=I'm Tore Down
TTITLE9=She Put The Whammy On Me
TTITLE10=Sen-sa-shun
TTITLE11=Teardrops On Your Letter
TTITLE12=Side Tracked
TTITLE13=The Welfare (Turns It's Back On You)
TTITLE14=The Stumble
TTITLE15=Someday After A While (You'll Be Sorry)
EXTD=
EXTT0=
EXTT1=
EXTT2=
EXTT3=
EXTT4=
EXTT5=
EXTT6=
EXTT7=
EXTT8=
EXTT9=
EXTT10=
EXTT11=
EXTT12=
EXTT13=
EXTT14=
EXTT15=
PLAYORDER=
